HIERARCHY
ROOT ui
{
	 OFFSET 0 0 0
	 CHANNELS 3 XPosition YPosition Z Position
	 EndSite
	 {
	 OFFSET 0 -1 0
	 }
}
ROOT li
{
	 OFFSET 0 0 0
	 CHANNELS 3 XPosition YPosition Z Position
	 EndSite
	 {
	 OFFSET 0 -1 0
	 }
}
ROOT ul
{
	 OFFSET 0 0 0
	 CHANNELS 3 XPosition YPosition Z Position
	 EndSite
	 {
	 OFFSET 0 -1 0
	 }
}
ROOT ll
{
	 OFFSET 0 0 0
	 CHANNELS 3 XPosition YPosition Z Position
	 EndSite
	 {
	 OFFSET 0 -1 0
	 }
}
ROOT tt
{
	 OFFSET 0 0 0
	 CHANNELS 3 XPosition YPosition Z Position
	 EndSite
	 {
	 OFFSET 0 -1 0
	 }
}
ROOT tb
{
	 OFFSET 0 0 0
	 CHANNELS 3 XPosition YPosition Z Position
	 EndSite
	 {
	 OFFSET 0 -1 0
	 }
}
ROOT td
{
	 OFFSET 0 0 0
	 CHANNELS 3 XPosition YPosition Z Position
	 EndSite
	 {
	 OFFSET 0 -1 0
	 }
}
ROOT v
{
	 OFFSET 0 0 0
	 CHANNELS 3 XPosition YPosition Z Position
	 EndSite
	 {
	 OFFSET 0 -1 0
	 }
}
ROOT bn
{
	 OFFSET 0 0 0
	 CHANNELS 3 XPosition YPosition Z Position
	 EndSite
	 {
	 OFFSET 0 -1 0
	 }
}
MOTION
Frames: 29
Frame Time: 0.002
0.00468275785446167	-3.559859991073608E-4	0		0.45366921997070314	-2.334104248046875	0		-1.0756719970703126	-0.029229982376098633	0		-0.7243609619140625	-2.330970458984375	0		1.4753824462890626	-0.52253173828125	0		3.04251123046875	-0.03264699935913086	0		4.43960009765625	0.1629735107421875	0		5.59621044921875	0.15224424743652343	0		-0.41405807495117186	5.852267578125	0		
0.005412277221679688	-4.2237800359725953E-4	0		0.4283086242675781	-2.33192333984375	0		-1.160908203125	-0.02535466957092285	0		-0.7508248291015625	-2.33872216796875	0		1.4760867919921874	-0.5226688232421876	0		3.017178466796875	-0.0385900764465332	0		4.4254111328125	0.16984873962402344	0		5.589591796875	0.15185081481933593	0		-0.2798266296386719	5.87284375	0		
0.006135825157165527	-4.905939996242523E-4	0		0.4528663330078125	-2.33726123046875	0		-1.078252685546875	-0.03221874618530273	0		-0.7611304321289063	-2.330639892578125	0		1.47678515625	-0.5228080444335937	0		3.04888818359375	-0.04012591552734375	0		4.43106982421875	0.1625155487060547	0		5.59302880859375	0.16850131225585938	0		-0.4460912170410156	5.84752685546875	0		
-0.07015189361572266	0.0012447470426559448	0		0.4384205017089844	-2.34019482421875	0		-1.1485108642578126	-0.027493818283081055	0		-0.7376929321289063	-2.3449111328125	0		1.47745751953125	-0.522947998046875	0		3.03459521484375	-0.03918522644042969	0		4.4257021484375	0.1552958526611328	0		5.59057080078125	0.14550616455078125	0		-0.4310072021484375	5.8573330078125	0		
0.010519792556762695	0.0023406341075897217	0		0.4669607543945313	-2.340577880859375	0		-1.1438154296875	-0.02354839515686035	0		-0.7430145874023437	-2.331881103515625	0		1.484160400390625	-0.5161507568359375	0		3.060309814453125	-0.03366268157958984	0		4.4355009765625	0.16791859436035156	0		5.601091796875	0.16197323608398437	0		-0.43006875610351564	5.8572861328125	0		
0.008089526176452637	-6.945099830627441E-4	0		0.43156689453125	-2.329287841796875	0		-1.1472574462890626	-0.02751726722717285	0		-0.7413468627929688	-2.314923095703125	0		1.4786630859375	-0.5232251586914063	0		3.035847412109375	-0.03961284637451172	0		4.433046875	0.16167019653320314	0		5.5973095703125	0.1788067626953125	0		-0.3951238098144531	5.8628818359375	0		
0.008627910614013672	-7.5906902551651E-4	0		0.4839066162109375	-2.3379228515625	0		-1.0776817626953126	-0.024257593154907227	0		-0.7481725463867187	-2.33887646484375	0		1.4791766357421876	-0.5233598022460938	0		3.066371826171875	-0.041139389038085936	0		4.4335927734375	0.16139463806152343	0		5.60189111328125	0.1608324737548828	0		-0.3943058166503906	5.86283642578125	0		
-0.0678898696899414	9.98139977455139E-4	0		0.4313209533691406	-2.332443115234375	0		-1.1462542724609375	-0.027534475326538087	0		-0.711848388671875	-2.34228564453125	0		1.4765770263671876	-0.5274580078125	0		3.015925048828125	-0.03280183792114258	0		4.429142578125	0.16817918395996093	0		5.59931298828125	0.14824546813964845	0		-0.40867037963867187	5.85295361328125	0		
0.009485361099243163	-8.78832995891571E-4	0		0.43160577392578126	-2.3325205078125	0		-1.1399190673828126	-0.032604148864746094	0		-0.7355946655273438	-2.345054443359375	0		1.4389990234375	-0.5221768188476562	0		3.040291015625	-0.035252052307128905	0		4.4383798828125	0.1528260498046875	0		5.59535888671875	0.15993498229980468	0		-0.4269717712402344	5.8571171875	0		
-0.06111134719848633	0.007828179836273194	0		0.4468070373535156	-2.33375341796875	0		-1.133435791015625	-0.01667375373840332	0		-0.6953632202148438	-2.34350537109375	0		1.4863515625	-0.5167968139648438	0		3.0495810546875	-0.037533111572265625	0		4.43582861328125	0.16461256408691408	0		5.60910498046875	0.153889404296875	0		-0.3762584228515625	5.870544921875	0		
0.01004250717163086	-9.823619723320007E-4	0		0.4599665222167969	-2.332960693359375	0		-1.152256103515625	-0.02247230529785156	0		-0.7451466674804688	-2.336988525390625	0		1.48049951171875	-0.523841064453125	0		3.065908447265625	-0.029878217697143553	0		4.4381005859375	0.16636250305175782	0		5.60507080078125	0.17082891845703124	0		-0.37874502563476564	5.87354296875	0		
0.010229089736938476	-0.0010281269550323486	0		0.4580453186035156	-2.335001220703125	0		-1.145124755859375	-0.02755038261413574	0		-0.7418414306640625	-2.3180400390625	0		1.480666748046875	-0.5239412231445313	0		3.021977783203125	-0.040561149597167966	0		4.435228515625	0.16018565368652343	0		5.59589697265625	0.16372047424316405	0		-0.39244827270507815	5.86366357421875	0		
0.01037299633026123	-0.0010708309412002565	0		0.4581121826171875	-2.335058837890625	0		-1.1519271240234374	-0.022479400634765626	0		-0.7777394409179688	-2.31466796875	0		1.477750244140625	-0.527999755859375	0		3.053107666015625	-0.04203907775878906	0		4.4353779296875	0.1599968719482422	0		5.60019775390625	0.1459213104248047	0		-0.39211077880859374	5.8636337890625	0		
0.010487252235412598	-0.00111113703250885	0		0.44109588623046875	-2.3409267578125	0		-1.1408250732421874	-0.023606077194213867	0		-0.7469534912109375	-2.339021240234375	0		1.480892822265625	-0.5241146240234374	0		3.038232666015625	-0.04100304794311523	0		4.43549658203125	0.15983070373535158	0		5.5896318359375	0.1579720458984375	0		-0.4258928527832031	5.857974609375	0		
0.013614718437194823	0.0018176740407943725	0		0.43527822875976563	-2.32791064453125	0		-1.13265478515625	-0.016705112457275392	0		-0.7736065673828125	-2.310749755859375	0		1.484008056640625	-0.5212200317382812	0		3.048391357421875	-0.03522115325927734	0		4.43866064453125	0.16565625	0		5.59189794921875	0.17146726989746094	0		-0.24325849914550782	5.89396337890625	0		
0.010665516853332519	-0.0011862449645996093	0		0.45824240112304687	-2.335205322265625	0		-1.075651611328125	-0.024342611312866212	0		-0.7109061889648437	-2.34245751953125	0		1.481049560546875	-0.5242501220703125	0		3.0384091796875	-0.04120261001586914	0		4.43874658203125	0.1655406494140625	0		5.6033037109375	0.1570935821533203	0		-0.3914103698730469	5.86354638671875	0		
0.010741716384887695	-0.0012217539548873902	0		0.45828952026367187	-2.335246337890625	0		-1.1475167236328125	-0.018578908920288087	0		-0.7775604248046875	-2.31475439453125	0		1.4811192626953125	-0.524303955078125	0		3.072526611328125	-0.037647235870361326	0		4.43490185546875	0.17249320983886718	0		5.5991552734375	0.17432574462890624	0		-0.3912611083984375	5.86351611328125	0		
0.01081259822845459	-0.001256261944770813	0		0.45631005859375	-2.33826220703125	0		-1.0755048828125	-0.0243908634185791	0		-0.7445636596679688	-2.32014306640625	0		1.478142578125	-0.5283165893554688	0		3.048620361328125	-0.03544288635253906	0		4.43583154296875	0.1594150390625	0		5.5891650390625	0.1623492889404297	0		-0.4261873779296875	5.8598671875	0		
0.010877185821533204	-0.0012897549867630005	0		0.4502366027832031	-2.35023095703125	0		-1.136404052734375	-0.020754600524902345	0		-0.7368018188476563	-2.347260009765625	0		1.4812491455078125	-0.5243876953125	0		3.0127744140625	-0.027092958450317384	0		4.4248974609375	0.15948794555664061	0		5.58990087890625	0.1570531463623047	0		-0.39007388305664065	5.86244140625	0		
0.013964345932006836	0.0016450959444046021	0		0.4645332641601562	-2.328416748046875	0		-1.0573214111328124	-0.018651378631591796	0		-0.74058056640625	-2.332250244140625	0		1.48738037109375	-0.5174842529296875	0		3.08069384765625	-0.03986409378051758	0		4.4439287109375	0.1572531280517578	0		5.60988671875	0.1512889404296875	0		-0.3938725891113281	5.87645166015625	0		
0.014002168655395508	0.0016145939826965332	0		0.43356304931640627	-2.3301064453125	0		-1.1422564697265625	-0.015759227752685546	0		-0.7753211669921874	-2.3129033203125	0		1.4813447265625	-0.5244412841796875	0		3.03684375	-0.02939895820617676	0		4.4390537109375	0.16529946899414064	0		5.59638720703125	0.15683372497558593	0		-0.2436553955078125	5.89477978515625	0		
0.010980790138244628	-0.0013810670375823974	0		0.45853839111328126	-2.33540380859375	0		-1.07533642578125	-0.02452846336364746	0		-0.7106102294921876	-2.342646484375	0		1.4813604736328125	-0.5244570922851562	0		3.03872412109375	-0.04142243194580078	0		4.43107470703125	0.16639649963378905	0		5.59348876953125	0.14483291625976563	0		-0.425110107421875	5.8577265625	0		
-0.06603108978271484	4.3162301182746887E-4	0		0.43256072998046874	-2.33314208984375	0		-1.15134814453125	-0.022738933563232422	0		-0.78033447265625	-2.316919677734375	0		1.4813389892578126	-0.5244671020507813	0		3.0226982421875	-0.04124045562744141	0		4.43596875	0.15936569213867188	0		5.60060302734375	0.14470552062988282	0		-0.4062374267578125	5.85448779296875	0		
0.010877429962158203	-0.001432224988937378	0		0.4325145874023438	-2.3331611328125	0		-1.1364029541015626	-0.02094180488586426	0		-0.7466223754882813	-2.3393232421875	0		1.4402830810546876	-0.5230264892578125	0		3.038621826171875	-0.041400638580322266	0		4.4398037109375	0.151354736328125	0		5.58990625	0.15717677307128905	0		-0.4112357177734375	5.86851171875	0		
0.013779540061950684	0.0015126529932022095	0		0.4453820495605469	-2.336319091796875	0		-1.13843505859375	-0.011958259582519531	0		-0.7446998291015625	-2.33737744140625	0		1.4841788330078125	-0.52150830078125	0		3.032568359375	-0.03431761932373047	0		4.43489990234375	0.17244479370117188	0		5.59623388671875	0.15709580993652345	0		-0.3915001220703125	5.8632666015625	0		
0.013591012001037598	0.0014927699565887452	0		0.46025604248046875	-2.333496337890625	0		-1.1426666259765625	-0.015949652671813964	0		-0.7776166381835937	-2.31505029296875	0		1.48096484375	-0.5244760131835937	0		3.053292236328125	-0.04252531051635742	0		4.43556787109375	0.15947311401367187	0		5.5918994140625	0.1745984344482422	0		-0.3917659606933594	5.8632412109375	0		
-0.0666772232055664	3.433449864387512E-4	0		0.43203530883789065	-2.33320458984375	0		-1.1519930419921875	-0.022883359909057616	0		-0.7448954467773438	-2.320435302734375	0		1.4776768798828126	-0.5284425659179688	0		3.0561064453125	-0.03653810882568359	0		4.430390625	0.16656414794921875	0		5.59885400390625	0.17449783325195312	0		-0.44124951171875	5.84875146484375	0		
0.009990612030029296	-0.001507254958152771	0		0.4556887512207031	-2.33847509765625	0		-1.1523096923828124	-0.02291151237487793	0		-0.7514354248046875	-2.343392578125	0		1.4773658447265625	-0.5284415893554687	0		3.031813232421875	-0.03425966262817383	0		4.430072265625	0.16659780883789063	0		5.58859033203125	0.16272998046875	0		-0.39346051025390627	5.8642099609375	0		
-0.06737363433837891	3.1317099928855895E-4	0		0.4313871154785156	-2.333224365234375	0		-1.137668212890625	-0.021098495483398438	0		-0.7497710571289062	-2.341434814453125	0		1.4800345458984374	-0.5244735717773438	0		3.021358642578125	-0.04113531875610352	0		4.42853955078125	0.1526385040283203	0		5.59543017578125	0.15742086791992188	0		-0.42697015380859377	5.85755029296875	0		
